<svg width="35" height="23" viewBox="0 0 35 23" fill="none" xmlns="http://www.w3.org/2000/svg">
<path d="M4.48341 1.83486C2.20602 6.42775 0.0220679 12.1239 0.000178147 16.3813C-0.00836155 17.9833 0.289609 19.3818 1.00413 20.4416C2.03198 21.9659 3.16392 22.5047 4.29111 22.5072C5.93851 22.511 7.57408 21.3696 8.85509 20.4905C11.012 19.0088 34.8526 1.22997 34.8526 1.22997C35.0826 1.03237 35.0393 0.785295 34.7516 0.90874C34.6356 0.958953 8.79704 12.9833 8.79704 12.9833C8.29833 13.2241 7.78903 13.3486 7.29308 13.3531C5.3076 13.3731 3.54064 11.4806 3.55491 7.4916C3.56037 5.93063 3.83926 4.04907 4.48341 1.83486V1.83486Z" fill="#B59354"/>
</svg>
