<svg width="300" height="21" viewBox="0 0 300 21" fill="none" xmlns="http://www.w3.org/2000/svg">
<path d="M1.27841 15V3.36364H5.42614C6.33144 3.36364 7.08144 3.52841 7.67614 3.85795C8.27083 4.1875 8.71591 4.63826 9.01136 5.21023C9.30682 5.77841 9.45455 6.41856 9.45455 7.13068C9.45455 7.84659 9.30492 8.49053 9.00568 9.0625C8.71023 9.63068 8.26326 10.0814 7.66477 10.4148C7.07008 10.7443 6.32197 10.9091 5.42045 10.9091H2.56818V9.42045H5.26136C5.83333 9.42045 6.29735 9.32197 6.65341 9.125C7.00947 8.92424 7.27083 8.65152 7.4375 8.30682C7.60417 7.96212 7.6875 7.57008 7.6875 7.13068C7.6875 6.69129 7.60417 6.30114 7.4375 5.96023C7.27083 5.61932 7.00758 5.35227 6.64773 5.15909C6.29167 4.96591 5.82197 4.86932 5.23864 4.86932H3.03409V15H1.27841ZM11.2614 15H9.39773L13.5852 3.36364H15.6136L19.8011 15H17.9375L14.6477 5.47727H14.5568L11.2614 15ZM11.5739 10.4432H17.6193V11.9205H11.5739V10.4432ZM19.3963 3.36364H21.3906L24.4304 8.65341H24.5554L27.5952 3.36364H29.5895L25.3679 10.4318V15H23.6179V10.4318L19.3963 3.36364ZM37.7599 15L34.5327 3.36364H36.3793L38.6463 12.375H38.7543L41.1122 3.36364H42.9418L45.2997 12.3807H45.4077L47.669 3.36364H49.5213L46.2884 15H44.5213L42.0724 6.28409H41.9815L39.5327 15H37.7599ZM51.1222 15V3.36364H52.8778V8.42045H58.679V3.36364H60.4403V15H58.679V9.92614H52.8778V15H51.1222ZM64.7528 3.36364V15H62.9972V3.36364H64.7528ZM66.7358 4.875V3.36364H75.7415V4.875H72.1108V15H70.3608V4.875H66.7358ZM91.6307 7.14773H89.858C89.7898 6.76894 89.6629 6.43561 89.4773 6.14773C89.2917 5.85985 89.0644 5.61553 88.7955 5.41477C88.5265 5.21401 88.2254 5.0625 87.892 4.96023C87.5625 4.85795 87.2121 4.80682 86.8409 4.80682C86.1705 4.80682 85.5701 4.97538 85.0398 5.3125C84.5133 5.64962 84.0966 6.14394 83.7898 6.79545C83.4867 7.44697 83.3352 8.24242 83.3352 9.18182C83.3352 10.1288 83.4867 10.928 83.7898 11.5795C84.0966 12.2311 84.5152 12.7235 85.0455 13.0568C85.5758 13.3902 86.1723 13.5568 86.8352 13.5568C87.2027 13.5568 87.5511 13.5076 87.8807 13.4091C88.214 13.3068 88.5152 13.1572 88.7841 12.9602C89.053 12.7633 89.2803 12.5227 89.4659 12.2386C89.6553 11.9508 89.786 11.6212 89.858 11.25L91.6307 11.2557C91.536 11.8277 91.3523 12.3542 91.0795 12.8352C90.8106 13.3125 90.464 13.7254 90.0398 14.0739C89.6193 14.4186 89.1383 14.6856 88.5966 14.875C88.0549 15.0644 87.464 15.1591 86.8239 15.1591C85.8163 15.1591 84.9186 14.9205 84.1307 14.4432C83.3428 13.9621 82.7216 13.2746 82.267 12.3807C81.8163 11.4867 81.5909 10.4205 81.5909 9.18182C81.5909 7.93939 81.8182 6.87311 82.2727 5.98295C82.7273 5.08901 83.3485 4.40341 84.1364 3.92614C84.9242 3.44508 85.8201 3.20455 86.8239 3.20455C87.4413 3.20455 88.017 3.29356 88.5511 3.47159C89.089 3.64583 89.572 3.90341 90 4.24432C90.428 4.58144 90.7822 4.99432 91.0625 5.48295C91.3428 5.9678 91.5322 6.52273 91.6307 7.14773ZM94.6364 15H92.7727L96.9602 3.36364H98.9886L103.176 15H101.312L98.0227 5.47727H97.9318L94.6364 15ZM94.9489 10.4432H100.994V11.9205H94.9489V10.4432ZM104.857 15V3.36364H109.004C109.906 3.36364 110.654 3.51894 111.249 3.82955C111.847 4.14015 112.294 4.57008 112.589 5.11932C112.885 5.66477 113.033 6.29545 113.033 7.01136C113.033 7.72348 112.883 8.35038 112.584 8.89205C112.288 9.42992 111.841 9.84848 111.243 10.1477C110.648 10.447 109.9 10.5966 108.999 10.5966H105.857V9.08523H108.839C109.408 9.08523 109.87 9.00379 110.226 8.84091C110.586 8.67803 110.849 8.44129 111.016 8.13068C111.182 7.82008 111.266 7.44697 111.266 7.01136C111.266 6.57197 111.18 6.19129 111.01 5.86932C110.843 5.54735 110.58 5.30114 110.22 5.13068C109.864 4.95644 109.396 4.86932 108.817 4.86932H106.612V15H104.857ZM110.601 9.75L113.476 15H111.476L108.658 9.75H110.601ZM118.936 15H115.169V3.36364H119.055C120.196 3.36364 121.175 3.59659 121.993 4.0625C122.811 4.52462 123.438 5.18939 123.874 6.05682C124.313 6.92045 124.533 7.95644 124.533 9.16477C124.533 10.3769 124.311 11.4186 123.868 12.2898C123.429 13.161 122.792 13.8314 121.959 14.3011C121.125 14.767 120.118 15 118.936 15ZM116.925 13.4659H118.839C119.726 13.4659 120.463 13.2992 121.05 12.9659C121.637 12.6288 122.076 12.142 122.368 11.5057C122.66 10.8655 122.805 10.0852 122.805 9.16477C122.805 8.25189 122.66 7.47727 122.368 6.84091C122.08 6.20455 121.65 5.72159 121.078 5.39205C120.506 5.0625 119.796 4.89773 118.947 4.89773H116.925V13.4659Z" fill="white"/>
<path fill-rule="evenodd" clip-rule="evenodd" d="M135.203 13.8617L135.199 13.8662L135.196 13.8707C135.018 14.1227 134.62 14.1968 134.308 13.9765C134.058 13.8003 133.983 13.4074 134.196 13.097C134.513 12.6927 134.743 12.2201 134.894 11.7581C135.052 11.2771 135.125 10.7305 135.122 10.1945C135.119 9.65839 135.04 9.11264 134.878 8.63335C134.722 8.17297 134.486 7.70282 134.165 7.30196C133.949 6.99378 134.02 6.60018 134.268 6.42124C134.577 6.1977 134.976 6.26751 135.157 6.51762L135.16 6.52211L135.164 6.52652C135.564 7.05407 135.892 7.6402 136.088 8.21525C136.294 8.89172 136.426 9.54609 136.429 10.1875C136.433 10.8625 136.368 11.5013 136.121 12.1302C135.851 12.8151 135.59 13.34 135.203 13.8617ZM138.095 15.1145L138.103 15.1034L138.11 15.0919C138.997 13.6713 139.509 11.957 139.499 10.1711C139.489 8.38571 138.96 6.67739 138.059 5.26647C137.863 4.95671 137.951 4.59046 138.28 4.35263C138.502 4.1929 138.917 4.24945 139.163 4.57954C140.181 6.19417 140.795 8.14601 140.806 10.1642C140.817 12.2513 140.224 14.1397 139.222 15.7662C138.991 16.085 138.636 16.1743 138.33 15.9936C137.999 15.7507 137.938 15.337 138.095 15.1145ZM143.286 2.45725L143.295 2.47451L143.305 2.49099C144.684 4.7392 145.45 7.33244 145.465 10.1394C145.48 12.945 144.742 15.5452 143.388 17.8072C143.181 18.1409 142.83 18.235 142.475 18.0697C142.152 17.859 142.065 17.5098 142.234 17.1571C143.385 15.1125 144.101 12.703 144.088 10.1467C144.074 7.60178 143.408 5.1962 142.157 3.15138C141.988 2.80223 142.071 2.4545 142.391 2.24139C142.776 2.05726 143.152 2.19222 143.286 2.45725ZM147.369 0.317678L147.375 0.329463L147.382 0.340898C149.053 3.22943 150.035 6.53186 150.054 10.1149C150.073 13.6943 149.128 17.0039 147.491 19.9079C147.283 20.2378 146.934 20.3302 146.581 20.1656C146.259 19.9556 146.171 19.608 146.338 19.2564C147.915 16.5648 148.764 13.4463 148.747 10.1219C148.729 6.78888 147.772 3.68252 146.243 1.01742C146.051 0.628371 146.186 0.247336 146.454 0.111846C146.846 -0.087029 147.232 0.047971 147.369 0.317678Z" fill="white"/>
</svg>
